<svg xmlns="http://www.w3.org/2000/svg" viewBox="0 0 820 480" width="820" height="480" font-family="ui-sans-serif, system-ui, -apple-system, 'Segoe UI', Roboto, 'Helvetica Neue', Arial, sans-serif" font-size="13">
<rect x="0.5" y="0.5" width="819" height="479" rx="10" fill="#ffffff" stroke="#e5e7eb"/>
<pattern id="hatch-d76947" patternUnits="userSpaceOnUse" width="7" height="7" patternTransform="rotate(45)"><rect width="7" height="7" fill="#ffffff"/><line x1="0" y1="0" x2="0" y2="7" stroke="#d76947" stroke-width="3" opacity="0.55"/></pattern>
<pattern id="hatch-475569" patternUnits="userSpaceOnUse" width="7" height="7" patternTransform="rotate(45)"><rect width="7" height="7" fill="#ffffff"/><line x1="0" y1="0" x2="0" y2="7" stroke="#475569" stroke-width="3" opacity="0.55"/></pattern>
<text x="28" y="34" font-size="19" fill="#1f2937" font-weight="700">BC Rate by Threshold</text>
<text x="28" y="56" font-size="13" fill="#6b7280" font-weight="400">Tasks resolved (out of 6) at each flash-cycle threshold.</text>
<rect x="606.5" y="68" width="185.5" height="24" fill="#fdf2ec" rx="12" stroke="#d76947" stroke-width="1"/><text x="699.25" y="85" font-size="12" fill="#d76947" font-weight="600" text-anchor="middle">3× more first-flash fixes</text>
<line x1="80" y1="396.0" x2="792" y2="396.0" stroke="#e5e7eb" stroke-width="1"/>
<text x="68" y="400.0" font-size="11" fill="#6b7280" font-weight="400" text-anchor="end">0</text>
<line x1="80" y1="346.6666666666667" x2="792" y2="346.6666666666667" stroke="#e5e7eb" stroke-width="1" stroke-dasharray="3,3"/>
<text x="68" y="350.6666666666667" font-size="11" fill="#6b7280" font-weight="400" text-anchor="end">1</text>
<line x1="80" y1="297.33333333333337" x2="792" y2="297.33333333333337" stroke="#e5e7eb" stroke-width="1" stroke-dasharray="3,3"/>
<text x="68" y="301.33333333333337" font-size="11" fill="#6b7280" font-weight="400" text-anchor="end">2</text>
<line x1="80" y1="248.0" x2="792" y2="248.0" stroke="#e5e7eb" stroke-width="1" stroke-dasharray="3,3"/>
<text x="68" y="252.0" font-size="11" fill="#6b7280" font-weight="400" text-anchor="end">3</text>
<line x1="80" y1="198.66666666666669" x2="792" y2="198.66666666666669" stroke="#e5e7eb" stroke-width="1" stroke-dasharray="3,3"/>
<text x="68" y="202.66666666666669" font-size="11" fill="#6b7280" font-weight="400" text-anchor="end">4</text>
<line x1="80" y1="149.33333333333331" x2="792" y2="149.33333333333331" stroke="#e5e7eb" stroke-width="1" stroke-dasharray="3,3"/>
<text x="68" y="153.33333333333331" font-size="11" fill="#6b7280" font-weight="400" text-anchor="end">5</text>
<line x1="80" y1="100.0" x2="792" y2="100.0" stroke="#e5e7eb" stroke-width="1" stroke-dasharray="3,3"/>
<text x="68" y="104.0" font-size="11" fill="#6b7280" font-weight="400" text-anchor="end">6</text>
<rect x="124.0" y="198.66666666666669" width="42" height="197.33333333333331" fill="#d76947" rx="3"/>
<rect x="172.0" y="346.6666666666667" width="42" height="49.33333333333333" fill="#475569" rx="3"/>
<text x="145.0" y="190.66666666666669" font-size="12" fill="#1f2937" font-weight="700" text-anchor="middle">4</text>
<text x="193.0" y="338.6666666666667" font-size="12" fill="#1f2937" font-weight="700" text-anchor="middle">1</text>
<text x="169.0" y="418" font-size="13" fill="#1f2937" font-weight="500" text-anchor="middle">@1</text>
<rect x="302.0" y="198.66666666666669" width="42" height="197.33333333333331" fill="#d76947" rx="3"/>
<rect x="350.0" y="297.33333333333337" width="42" height="98.66666666666666" fill="#475569" rx="3"/>
<text x="323.0" y="190.66666666666669" font-size="12" fill="#1f2937" font-weight="700" text-anchor="middle">4</text>
<text x="371.0" y="289.33333333333337" font-size="12" fill="#1f2937" font-weight="700" text-anchor="middle">2</text>
<text x="347.0" y="418" font-size="13" fill="#1f2937" font-weight="500" text-anchor="middle">@3</text>
<rect x="480.0" y="198.66666666666669" width="42" height="197.33333333333331" fill="#d76947" rx="3"/>
<rect x="528.0" y="248.0" width="42" height="148.0" fill="#475569" rx="3"/>
<text x="501.0" y="190.66666666666669" font-size="12" fill="#1f2937" font-weight="700" text-anchor="middle">4</text>
<text x="549.0" y="240.0" font-size="12" fill="#1f2937" font-weight="700" text-anchor="middle">3</text>
<text x="525.0" y="418" font-size="13" fill="#1f2937" font-weight="500" text-anchor="middle">@5</text>
<rect x="658.0" y="149.33333333333331" width="42" height="246.66666666666669" fill="#d76947" rx="3"/>
<rect x="706.0" y="248.0" width="42" height="148.0" fill="#475569" rx="3"/>
<text x="679.0" y="141.33333333333331" font-size="12" fill="#1f2937" font-weight="700" text-anchor="middle">5</text>
<text x="727.0" y="240.0" font-size="12" fill="#1f2937" font-weight="700" text-anchor="middle">3</text>
<text x="703.0" y="418" font-size="13" fill="#1f2937" font-weight="500" text-anchor="middle">@7</text>
<rect x="80" y="425" width="16" height="13" fill="#d76947" rx="2"/><text x="104" y="436" font-size="12" fill="#6b7280" font-weight="400">Adsum IoT Coder</text>
<rect x="280" y="425" width="16" height="13" fill="#475569" rx="2"/><text x="304" y="436" font-size="12" fill="#6b7280" font-weight="400">Claude Code</text>
<text x="792" y="462" font-size="11" fill="#6b7280" font-weight="400" text-anchor="end">Same model: Claude Haiku 4.5 · NCS v3.2.1 · n=6 BLE tasks</text>
</svg>