<svg xmlns="http://www.w3.org/2000/svg" viewBox="0 0 512 512" width="512" height="512">
<g transform="translate(0.000000,512.000000) scale(0.250000,-0.250000)"
fill="currentColor" stroke="none">
<path d="M700 1991 c0 -3 -6 -8 -14 -11 -8 -3 -14 -8 -14 -11 0 -3 -2 -5 -5
-5 -6 0 -19 -14 -16 -18 1 -1 -1 -2 -4 -2 -4 0 -7 -3 -7 -6 0 -3 -3 -6 -6 -6
-3 0 -6 -3 -6 -6 0 -3 -2 -6 -4 -6 -9 0 -16 -12 -16 -25 0 -16 8 -35 15 -35 3
0 5 -3 5 -6 0 -3 2 -6 4 -6 2 0 6 -4 8 -10 2 -5 5 -10 7 -10 2 0 6 -7 9 -16 3
-9 7 -16 8 -16 2 0 5 -8 8 -18 2 -10 6 -18 8 -18 2 0 4 -6 6 -14 1 -8 4 -14 6
-14 2 0 2 -4 1 -8 -1 -5 0 -10 2 -12 3 -1 6 -11 8 -22 1 -11 5 -21 8 -23 3 -2
5 -10 5 -19 0 -8 3 -17 6 -20 3 -3 6 -8 6 -12 0 -13 10 -46 15 -51 3 -3 5 -8
5 -11 0 -4 3 -10 8 -15 4 -4 7 -10 6 -13 -2 -3 0 -7 4 -10 3 -3 8 -12 10 -21
3 -9 7 -19 11 -21 6 -4 3 -18 -3 -18 -2 0 -4 -3 -4 -8 0 -4 -2 -9 -4 -10 -2
-1 -4 -6 -4 -10 0 -4 -3 -8 -6 -9 -4 -2 -6 -8 -6 -15 0 -7 -2 -13 -6 -14 -3
-2 -6 -9 -8 -16 -1 -8 -4 -14 -7 -14 -2 0 -3 -2 -2 -5 1 -3 0 -9 -3 -13 -4 -4
-6 -14 -6 -21 0 -8 -2 -14 -6 -16 -4 -1 -6 -7 -6 -17 0 -8 -3 -17 -6 -20 -3
-3 -6 -11 -6 -20 0 -8 -3 -18 -6 -23 -4 -5 -6 -12 -5 -15 2 -3 1 -7 -1 -8 -2
-1 -4 -9 -6 -18 -1 -8 -5 -16 -8 -18 -3 -1 -6 -4 -6 -7 0 -8 -24 -55 -28 -55
-2 0 -4 -4 -4 -10 0 -6 -2 -10 -6 -10 -3 0 -6 -3 -6 -6 0 -3 -3 -6 -6 -6 -3 0
-7 -6 -10 -13 -4 -13 -17 -27 -24 -27 -2 0 -4 -2 -4 -5 0 -8 -23 -27 -32 -27
-4 0 -8 2 -8 4 0 2 -3 4 -6 4 -3 0 -6 2 -6 5 0 4 -6 11 -14 18 -8 7 -14 13
-14 14 0 3 -11 17 -21 26 -3 4 -9 13 -12 21 -3 8 -11 19 -17 26 -5 7 -11 16
-13 21 -1 5 -4 9 -6 9 -2 0 -2 2 -1 4 2 4 2 6 -11 31 -4 8 -7 18 -7 24 0 11
-8 37 -12 41 -2 1 -5 14 -7 30 -3 15 -6 28 -8 30 -2 1 -5 9 -7 17 -1 8 -4 15
-6 15 -2 0 -5 7 -6 16 -2 10 -5 16 -9 16 -3 0 -5 4 -5 9 0 10 -19 51 -26 56
-2 2 -2 3 -1 3 2 0 -1 6 -7 14 -5 7 -12 18 -14 24 -2 5 -6 10 -8 10 -2 0 -5 4
-6 8 -1 4 -5 8 -8 8 -3 0 -6 2 -6 4 0 2 -4 10 -9 16 -7 10 -11 12 -28 12 -10
0 -19 -2 -19 -4 0 -2 -3 -4 -6 -4 -3 0 -6 -3 -6 -6 0 -3 -3 -6 -6 -6 -3 0 -6
-3 -6 -6 0 -3 -3 -6 -6 -6 -4 0 -5 -2 -4 -4 1 -2 0 -4 -4 -4 -3 0 -6 -3 -6 -6
0 -3 -3 -6 -6 -6 -3 0 -6 -3 -6 -6 0 -3 -2 -6 -4 -6 -10 0 -16 -12 -16 -33 0
-17 2 -22 8 -27 4 -3 8 -8 8 -10 0 -2 2 -7 4 -10 4 -5 4 -5 8 0 3 5 4 2 4 -9
0 -11 2 -15 6 -15 4 0 5 -2 4 -4 -2 -4 10 -29 17 -33 3 -2 5 -7 5 -11 0 -4 3
-8 6 -8 4 0 6 -4 6 -16 0 -8 2 -17 5 -20 4 -2 5 -8 4 -14 -1 -7 0 -12 3 -14 3
-2 6 -12 7 -24 1 -13 4 -20 8 -20 3 0 5 -5 5 -16 0 -11 2 -16 5 -16 4 0 7 -7
8 -21 1 -11 4 -21 6 -22 2 -1 3 -5 2 -9 -1 -5 1 -9 5 -10 4 -2 6 -8 6 -16 0
-10 2 -14 6 -14 4 0 6 -4 6 -10 0 -5 3 -11 6 -14 3 -2 8 -11 10 -18 3 -8 7
-14 10 -14 4 0 6 -4 6 -12 0 -8 2 -12 6 -12 3 0 7 -4 8 -10 2 -5 6 -11 10 -12
5 -1 8 -6 8 -10 0 -5 3 -8 6 -8 3 0 6 -2 6 -4 0 -2 5 -10 12 -16 7 -6 12 -14
12 -16 0 -2 1 -4 3 -4 2 0 5 -4 8 -8 7 -11 0 -20 -14 -20 -7 0 -9 -2 -8 -6 2
-5 -1 -6 -13 -6 -8 0 -17 -2 -18 -4 -1 -2 -10 -4 -18 -4 -11 0 -17 -2 -19 -6
-1 -4 -8 -6 -20 -6 -14 0 -17 -1 -16 -6 2 -5 -1 -6 -19 -6 -12 0 -22 -2 -22
-4 0 -2 -7 -4 -16 -4 -12 0 -16 -2 -16 -6 0 -4 -4 -6 -14 -6 -10 0 -14 -2 -14
-6 0 -4 -4 -6 -14 -6 -8 0 -14 -2 -14 -4 0 -2 -4 -4 -10 -4 -6 0 -10 -2 -10
-6 0 -3 -3 -6 -7 -6 -4 0 -12 -4 -18 -10 -6 -6 -15 -10 -21 -10 -6 0 -10 -2
-10 -6 0 -3 -5 -7 -10 -8 -6 -2 -10 -4 -10 -6 0 -2 -3 -4 -6 -4 -3 0 -6 -2 -6
-4 0 -2 -3 -4 -6 -4 -3 0 -6 -3 -6 -6 0 -4 -4 -6 -10 -6 -9 0 -10 -1 -10 -20
0 -19 1 -21 19 -37 10 -9 29 -27 41 -40 22 -22 24 -23 44 -23 11 0 20 2 20 4
0 6 10 16 17 16 3 0 8 3 11 6 3 3 7 6 10 6 4 0 6 3 6 6 0 3 3 6 8 6 4 0 9 2
10 4 1 2 6 4 10 4 4 0 8 3 9 6 2 4 8 6 15 6 8 0 12 2 12 6 0 4 4 6 16 6 9 0
16 2 16 4 0 2 7 4 16 4 12 0 16 2 16 6 0 4 4 6 16 6 8 0 18 3 21 6 4 3 13 6
20 6 8 0 16 2 17 4 1 2 10 4 18 4 11 0 17 2 19 6 1 3 7 6 13 6 6 0 14 3 17 6
4 3 11 6 17 6 6 0 9 2 8 4 -1 2 3 4 10 4 8 0 12 2 12 6 0 4 4 6 10 6 5 0 10 3
11 6 2 3 7 6 13 6 5 0 10 2 10 4 0 2 5 4 10 4 6 0 10 -2 10 -4 0 -2 5 -4 10
-4 6 0 10 -2 10 -6 0 -4 4 -6 12 -6 7 0 13 -2 15 -6 1 -3 5 -6 9 -6 4 0 9 -2
10 -4 1 -2 8 -4 14 -4 8 0 12 -2 12 -6 0 -4 4 -6 16 -6 12 0 16 -2 16 -6 0 -4
4 -6 14 -6 7 0 15 -2 16 -4 1 -2 10 -4 18 -4 11 0 17 -2 19 -6 1 -4 8 -6 23
-6 16 0 22 -1 21 -5 -1 -3 5 -5 16 -6 9 -1 17 -3 17 -5 0 -2 5 -4 12 -4 6 0
13 -3 16 -6 3 -3 9 -6 14 -6 5 0 10 -3 11 -6 2 -3 7 -6 13 -6 5 0 10 -2 10 -4
0 -2 4 -4 8 -4 4 0 8 -2 8 -4 0 -2 4 -5 8 -6 4 -1 8 -5 8 -8 0 -4 4 -6 12 -6
7 0 12 -2 12 -3 0 -4 23 -29 26 -29 1 0 11 -9 22 -19 l20 -20 -19 -20 c-11
-12 -22 -21 -25 -21 -2 0 -4 -3 -4 -6 0 -3 -2 -6 -3 -6 -2 0 -9 -4 -15 -10 -6
-5 -14 -10 -18 -10 -4 0 -8 -3 -8 -6 0 -3 -3 -6 -6 -6 -3 0 -6 -3 -6 -6 0 -4
-4 -6 -10 -6 -5 0 -11 -2 -12 -4 -1 -2 -6 -4 -10 -4 -5 0 -9 -3 -11 -6 -1 -3
-6 -6 -11 -6 -6 0 -10 -2 -10 -6 0 -4 -4 -6 -14 -6 -7 0 -15 -2 -16 -4 -1 -2
-9 -4 -18 -4 -8 0 -17 -3 -20 -6 -3 -3 -11 -6 -18 -6 -7 0 -16 -3 -20 -6 -5
-3 -12 -6 -16 -6 -5 0 -14 -4 -19 -8 -7 -5 -11 -7 -11 -4 0 4 -2 4 -5 1 -3 -2
-13 -5 -23 -6 -28 -4 -44 -8 -44 -11 0 -2 -6 -5 -14 -6 -7 -2 -16 -5 -18 -8
-3 -3 -8 -6 -13 -6 -4 0 -6 -2 -5 -4 1 -2 -1 -4 -6 -4 -4 0 -9 -2 -10 -4 -1
-2 -10 -7 -20 -12 -10 -5 -18 -10 -18 -12 0 -2 -3 -4 -6 -4 -3 0 -7 -3 -9 -6
-1 -3 -4 -6 -6 -6 -3 0 -10 -4 -16 -10 -6 -5 -12 -10 -14 -10 -2 0 -5 -4 -6
-9 -4 -14 -3 -31 1 -31 2 0 4 -3 4 -6 0 -3 3 -6 6 -6 3 0 6 -3 6 -6 0 -3 3 -6
6 -6 3 0 6 -2 6 -4 0 -2 3 -4 6 -4 3 0 6 -2 6 -4 0 -2 8 -13 19 -24 18 -19 20
-20 39 -20 12 0 22 1 23 3 2 5 40 33 45 33 3 0 7 3 10 6 3 3 8 6 12 6 5 0 8 2
8 4 0 2 5 4 10 4 6 0 10 2 10 4 0 5 23 12 41 12 10 0 15 2 15 5 0 4 6 7 16 9
9 1 16 4 16 7 0 4 9 7 31 8 18 2 33 5 37 9 4 3 12 6 18 6 7 0 16 3 20 6 5 3
15 7 23 8 9 2 15 5 15 8 0 4 4 6 10 6 5 0 11 2 12 4 1 2 6 4 10 4 5 0 9 3 11
6 1 3 6 6 11 6 6 0 10 2 10 6 0 3 2 6 5 6 9 0 30 12 40 22 5 5 13 10 18 10 5
0 8 2 7 4 -1 2 0 4 3 4 3 0 11 7 19 16 8 9 16 16 19 16 3 0 5 2 5 5 0 3 5 8
10 12 l10 7 4 -16 c2 -9 6 -16 8 -16 1 0 5 -11 8 -24 3 -13 7 -24 9 -24 2 0 3
-3 3 -8 0 -4 2 -8 6 -9 5 -2 6 -8 12 -54 2 -14 5 -21 9 -21 3 0 5 -5 5 -16 0
-11 2 -16 5 -16 4 0 7 -7 8 -21 1 -11 4 -21 7 -22 2 -1 3 -3 2 -5 -1 -2 -1 -4
1 -4 2 0 8 -10 13 -22 6 -12 12 -22 15 -22 3 0 5 -3 5 -7 0 -4 5 -12 10 -18 6
-6 10 -14 10 -19 0 -4 3 -8 6 -8 3 0 6 -3 6 -6 0 -3 3 -7 6 -9 3 -1 6 -4 6 -7
0 -3 2 -6 4 -6 2 0 4 -3 4 -6 0 -14 42 -20 47 -7 1 4 19 23 40 42 35 34 37 37
37 53 0 12 -2 18 -8 22 -4 3 -8 8 -8 10 0 6 -19 26 -25 26 -4 0 -3 1 1 4 4 3
5 5 2 7 -6 4 -14 20 -14 27 0 3 -2 6 -4 6 -2 0 -4 2 -4 5 0 3 -4 10 -8 16 -4
6 -8 15 -8 20 0 6 -2 11 -6 12 -3 1 -6 9 -7 18 -6 38 -8 48 -14 55 -3 4 -5 14
-5 21 0 9 -2 13 -6 13 -4 0 -6 4 -6 16 0 8 -3 17 -6 20 -3 2 -5 9 -4 14 0 6
-2 12 -5 14 -3 3 -5 9 -5 14 0 5 -3 11 -6 14 -3 3 -6 8 -6 13 0 4 -3 8 -6 10
-3 1 -6 6 -6 12 0 5 -3 10 -6 11 -3 2 -5 5 -3 8 1 3 -1 7 -5 8 -8 4 -8 16 0
23 3 4 6 8 5 10 -1 2 3 8 8 13 5 6 11 15 12 21 1 6 4 13 7 15 4 3 6 9 6 14 0
5 3 11 6 14 3 2 5 7 4 11 0 4 1 8 3 9 2 2 5 11 6 20 1 10 5 19 8 21 3 2 5 10
5 19 0 12 2 16 6 16 4 0 6 4 6 16 0 8 2 17 4 18 2 1 4 9 4 18 0 8 3 17 6 20 3
3 6 10 6 16 0 6 3 13 6 16 3 3 6 8 6 13 0 4 3 8 6 10 3 1 6 5 6 9 0 4 2 9 4
10 2 1 4 6 4 9 0 8 13 25 20 25 2 0 4 3 4 6 0 3 5 10 10 16 6 6 10 14 10 17 0
3 3 5 6 5 3 0 6 3 6 6 0 3 3 6 6 6 3 0 6 2 6 4 0 4 27 32 31 32 4 0 41 -39 41
-44 0 -2 3 -4 6 -4 3 0 6 -3 6 -6 0 -3 3 -6 6 -6 3 0 6 -3 6 -7 0 -3 3 -9 7
-13 11 -10 25 -31 25 -38 0 -3 3 -6 6 -6 3 0 6 -3 6 -8 0 -4 2 -9 4 -10 2 -1
4 -7 4 -12 0 -6 2 -10 6 -10 5 0 6 -5 6 -20 0 -19 5 -26 9 -15 1 3 3 -4 3 -16
0 -16 1 -21 6 -21 4 0 6 -5 6 -18 0 -10 1 -18 3 -18 2 0 3 -7 4 -15 1 -8 4
-16 7 -18 4 -2 6 -9 6 -20 0 -12 1 -15 6 -14 5 2 6 -1 6 -13 0 -8 3 -17 6 -20
3 -2 4 -8 3 -12 -1 -5 1 -9 5 -10 3 -2 6 -7 6 -12 0 -6 2 -10 6 -10 4 0 6 -4
6 -10 0 -6 2 -10 6 -10 3 0 6 -3 6 -8 0 -4 3 -9 6 -12 3 -3 5 -7 4 -8 -1 -2
-1 -4 1 -4 3 0 6 -5 7 -12 1 -7 5 -12 8 -12 3 0 6 -2 6 -4 0 -2 3 -4 6 -4 4 0
6 -4 6 -9 0 -10 9 -23 15 -23 3 0 5 -3 5 -6 0 -10 19 -7 30 4 6 6 12 10 14 10
2 0 4 3 4 6 0 3 3 6 6 6 3 0 6 3 6 6 0 3 2 6 4 6 5 0 28 23 28 28 0 2 2 4 5 4
8 0 23 19 23 27 0 4 -4 11 -8 15 -4 4 -8 9 -8 12 0 3 -3 6 -6 7 -3 2 -6 6 -6
9 0 3 -3 6 -6 6 -3 0 -6 3 -6 8 0 4 -3 9 -6 12 -3 3 -7 9 -8 13 -4 12 -19 45
-22 46 -2 1 -2 6 -1 11 1 6 0 10 -2 10 -4 0 -9 13 -11 26 0 2 -3 9 -5 15 -3 6
-6 19 -7 27 -2 9 -5 18 -8 20 -4 3 -6 12 -6 20 0 11 -2 16 -5 16 -4 0 -7 7 -8
23 -2 12 -5 23 -7 25 -2 1 -4 4 -3 6 1 6 -11 33 -17 36 -2 1 -4 6 -4 10 0 4
-3 8 -6 9 -3 2 -6 6 -6 10 0 5 -3 10 -6 13 -3 2 -5 7 -3 10 1 4 -1 6 -5 6 -3
0 -6 3 -6 6 0 3 -3 6 -6 7 -3 2 -6 6 -6 11 0 4 -3 8 -6 8 -3 0 -6 2 -6 5 0 3
-4 9 -8 13 -4 4 -9 11 -10 15 -3 9 -25 31 -31 31 -2 0 -3 3 -3 6 0 3 -3 6 -6
6 -12 0 -1 11 14 14 9 1 15 4 14 6 -1 2 3 4 11 4 7 0 17 2 21 5 8 6 22 9 52
14 9 1 17 4 19 7 2 4 10 6 21 6 12 0 19 2 20 5 1 3 14 8 29 11 14 3 27 8 28
11 1 3 6 5 11 5 6 0 10 2 10 6 0 4 4 6 12 6 6 0 13 2 14 4 1 2 6 4 10 4 4 0 8
3 9 6 2 3 7 6 13 6 6 0 10 2 10 6 0 3 4 7 8 8 5 1 16 9 26 16 10 8 19 14 20
14 2 0 17 12 26 22 5 4 8 11 8 15 0 8 -17 27 -24 27 -2 0 -4 3 -4 6 0 3 -2 6
-4 6 -2 0 -15 12 -29 26 -14 14 -28 26 -31 26 -2 0 -4 3 -4 7 0 8 -20 4 -36
-7 -6 -4 -13 -8 -15 -8 -2 0 -5 -4 -6 -8 -1 -5 -6 -8 -10 -8 -4 0 -11 -4 -15
-8 -4 -4 -10 -8 -14 -8 -4 0 -9 -3 -12 -6 -3 -3 -9 -6 -14 -6 -5 0 -10 -3 -11
-6 -2 -3 -8 -6 -15 -6 -6 0 -13 -2 -14 -4 -1 -2 -10 -4 -18 -4 -11 0 -17 -2
-19 -6 -1 -3 -7 -6 -13 -6 -6 0 -14 -3 -17 -6 -4 -3 -10 -6 -14 -6 -14 0 -51
-9 -59 -15 -4 -3 -13 -5 -20 -5 -7 0 -15 -3 -18 -6 -3 -3 -9 -6 -14 -6 -6 0
-10 -2 -10 -4 0 -2 -4 -4 -8 -4 -4 0 -8 -2 -8 -3 0 -2 -8 -6 -17 -9 -9 -3 -21
-9 -25 -13 -5 -4 -11 -7 -15 -7 -4 0 -8 -2 -9 -4 -2 -3 -23 7 -69 31 -21 12
-26 13 -37 13 -7 0 -12 2 -12 5 0 4 -7 7 -21 8 -11 2 -21 4 -23 6 -2 4 -16 8
-39 12 -7 1 -15 4 -17 7 -3 3 -12 6 -20 6 -8 0 -17 3 -20 6 -3 3 -9 6 -13 6
-12 0 -40 9 -46 15 -3 3 -10 5 -15 5 -5 0 -11 3 -14 6 -3 3 -8 6 -12 6 -4 0
-10 3 -13 7 -3 5 -9 9 -15 11 -5 2 -16 9 -23 16 -7 8 -14 14 -16 14 -2 0 -9 5
-16 12 -7 7 -14 12 -15 12 -2 0 -9 6 -17 14 l-14 14 11 5 c5 2 10 7 10 10 0 3
2 5 4 5 2 0 9 5 16 11 18 17 35 29 40 29 2 0 4 2 4 4 0 2 7 8 16 12 9 5 16 11
16 13 0 2 4 3 9 3 5 0 13 3 17 7 5 4 15 9 24 10 9 2 17 5 17 7 1 2 4 4 8 4 3
0 11 2 18 5 18 8 44 15 57 15 5 0 14 2 19 6 5 3 16 6 24 8 8 1 15 4 16 6 0 2
13 6 27 9 14 2 27 7 29 9 2 3 9 6 17 8 8 1 14 4 14 6 0 2 4 5 9 6 18 6 51 23
51 26 0 2 2 4 5 4 3 0 9 4 13 8 4 4 10 8 14 8 4 0 11 5 16 10 5 6 12 10 15 10
3 0 5 3 5 6 0 3 3 6 8 6 8 0 12 7 12 24 0 17 -4 24 -12 24 -5 0 -8 3 -8 6 0 3
-3 6 -6 6 -3 0 -6 3 -6 6 0 3 -2 6 -5 6 -3 0 -16 12 -29 26 -22 24 -25 26 -41
26 -9 0 -17 -2 -17 -4 0 -7 -11 -16 -20 -16 -4 0 -8 -3 -8 -6 0 -3 -4 -6 -8
-6 -4 0 -8 -3 -8 -6 0 -4 -4 -6 -10 -6 -5 0 -10 -2 -10 -4 0 -2 -4 -4 -10 -4
-11 0 -17 -6 -9 -9 3 -1 -2 -3 -10 -3 -11 0 -15 -2 -15 -6 0 -4 -4 -6 -13 -6
-19 0 -53 -11 -52 -16 1 -2 -7 -4 -19 -4 -16 0 -20 -1 -19 -6 2 -5 -1 -6 -54
-12 -13 -2 -19 -5 -19 -8 0 -4 -5 -6 -14 -6 -10 0 -14 -2 -14 -6 0 -4 -4 -6
-14 -6 -8 0 -14 -2 -14 -4 0 -2 -4 -4 -10 -4 -5 0 -10 -3 -11 -6 -2 -3 -6 -6
-10 -6 -5 0 -10 -3 -13 -6 -3 -3 -8 -6 -11 -6 -3 0 -10 -4 -16 -10 -6 -5 -14
-10 -18 -10 -4 0 -7 -3 -7 -6 0 -3 -3 -6 -6 -6 -3 0 -6 -2 -6 -4 0 -2 -4 -4
-10 -4 -6 0 -10 -2 -10 -6 0 -3 -2 -6 -5 -6 -3 0 -16 -11 -29 -24 -13 -13 -25
-24 -27 -24 -1 0 -3 4 -3 9 0 5 -3 12 -6 17 -3 4 -6 13 -6 21 0 9 -2 13 -6 13
-3 0 -6 4 -6 8 0 11 -9 46 -13 48 -2 1 -4 11 -5 22 -2 11 -5 22 -8 24 -3 2 -6
12 -7 22 -1 9 -4 18 -6 20 -2 1 -3 5 -3 9 1 4 -1 9 -4 11 -3 3 -6 8 -6 11 0 9
-28 65 -36 73 -4 4 -10 14 -14 23 -5 9 -10 17 -13 17 -3 0 -6 5 -7 10 -2 6 -5
10 -7 10 -2 0 -5 5 -8 10 -2 6 -8 10 -12 10 -4 0 -6 2 -4 6 1 5 -1 6 -11 6 -7
0 -12 -2 -12 -5z m217 -671 c6 -6 16 -14 23 -18 7 -3 12 -8 12 -10 0 -2 2 -4
5 -4 3 0 10 -5 16 -12 6 -7 14 -12 17 -12 3 0 6 -2 6 -4 0 -2 3 -4 6 -4 4 0 5
-2 4 -4 -1 -2 3 -4 10 -4 10 0 12 -1 11 -6 -2 -4 0 -6 5 -6 4 0 8 -3 9 -6 2
-3 6 -6 11 -6 4 0 8 -2 8 -4 0 -2 5 -4 12 -4 6 0 12 -3 13 -6 2 -3 6 -6 10 -6
5 0 10 -3 13 -6 3 -3 9 -6 14 -6 5 0 11 -2 12 -4 1 -2 8 -4 14 -4 6 0 12 -2
13 -4 0 -2 10 -5 21 -7 11 -1 21 -5 23 -8 2 -3 8 -5 14 -5 14 0 44 -9 56 -15
5 -3 14 -5 22 -5 7 0 16 -3 21 -6 4 -3 11 -6 15 -6 3 0 8 -2 9 -4 3 -5 -19
-28 -26 -28 -2 0 -4 -2 -4 -4 0 -5 -13 -22 -26 -36 -3 -4 -6 -10 -6 -13 0 -4
-3 -7 -6 -7 -3 0 -6 -3 -6 -6 0 -4 -4 -11 -10 -17 -5 -6 -10 -14 -10 -18 0 -4
-3 -7 -6 -7 -4 0 -6 -4 -6 -10 0 -5 -2 -10 -5 -11 -4 -1 -7 -7 -9 -14 -1 -6
-5 -14 -9 -18 -3 -4 -7 -16 -8 -27 -1 -14 -3 -19 -7 -17 -5 1 -6 -3 -6 -21 0
-17 -1 -22 -6 -22 -5 0 -8 -9 -7 -27 0 -3 -1 -5 -3 -5 -2 0 -4 -6 -4 -14 0 -9
-2 -15 -6 -17 -3 -1 -6 -6 -6 -11 0 -5 -2 -11 -4 -12 -3 -2 -4 -6 -3 -10 1 -5
1 -8 -1 -8 -2 0 -5 -6 -6 -14 -2 -8 -4 -14 -6 -14 -2 0 -5 -6 -6 -14 -3 -12
-10 -20 -10 -10 0 2 -4 5 -8 6 -4 1 -8 5 -8 8 0 3 -2 6 -4 6 -2 0 -13 9 -24
20 -11 11 -23 20 -25 20 -3 0 -12 5 -19 12 -8 6 -16 12 -19 12 -3 0 -10 5 -16
10 -6 6 -14 10 -17 10 -4 0 -9 3 -12 6 -3 3 -9 6 -14 6 -6 0 -10 2 -10 4 0 2
-5 4 -12 4 -7 0 -13 2 -15 6 -1 4 -7 6 -16 6 -8 0 -14 2 -16 6 -1 4 -7 6 -15
6 -8 0 -14 2 -14 4 0 2 -8 4 -18 4 -14 0 -17 1 -15 6 1 5 -2 6 -21 6 -16 0
-22 1 -22 6 0 3 -6 6 -16 8 -9 1 -23 3 -32 4 -10 2 -16 5 -16 8 0 4 -4 6 -12
6 -6 0 -13 3 -16 6 -5 6 -4 8 4 16 6 4 12 11 13 15 2 4 6 7 9 7 3 0 6 3 6 6 0
3 3 6 6 6 3 0 6 3 6 6 0 3 8 15 18 26 10 11 18 23 18 26 0 3 2 6 4 6 2 0 4 3
4 6 0 3 3 6 6 6 5 0 6 3 5 10 -1 7 0 10 4 10 3 0 5 3 5 6 0 3 2 6 4 6 3 0 3 2
2 4 -1 2 -1 4 2 4 2 0 4 3 4 8 0 4 3 9 6 12 3 3 6 9 6 14 0 5 3 11 6 14 4 3 5
9 4 16 -1 8 0 12 4 13 4 2 6 8 6 17 0 8 2 14 4 14 2 0 6 11 8 24 3 13 7 24 9
24 1 0 3 6 3 14 0 7 2 15 4 16 2 1 4 8 4 14 0 6 3 13 6 16 3 3 6 11 6 18 0 10
2 14 6 14 4 0 6 4 6 10 0 13 4 13 17 -2z"/>
</g>
</svg>